<svg width="22" height="22" viewBox="0 0 22 22" fill="none" xmlns="http://www.w3.org/2000/svg">
<path d="M8.25 16.9585H13.75M6.41667 13.7502H15.5833M4.58333 1.8335H17.4167C18.4292 1.8335 19.25 2.74551 19.25 3.87053V18.1298C19.25 19.2548 18.4292 20.1668 17.4167 20.1668H4.58333C3.57081 20.1668 2.75 19.2548 2.75 18.1298V3.87053C2.75 2.74551 3.57081 1.8335 4.58333 1.8335ZM10.9978 5.69444C10.3563 4.98023 9.28667 4.78811 8.48296 5.44211C7.67926 6.09611 7.56611 7.18957 8.19726 7.96306C8.82842 8.73655 10.9978 10.5418 10.9978 10.5418C10.9978 10.5418 13.1672 8.73655 13.7983 7.96306C14.4295 7.18957 14.3302 6.08923 13.5126 5.44211C12.6951 4.79499 11.6393 4.98023 10.9978 5.69444Z" stroke="#C0FF94" stroke-width="1.5" stroke-linecap="round" stroke-linejoin="round"/>
</svg>
