<svg width="22" height="22" viewBox="0 0 22 22" fill="none" xmlns="http://www.w3.org/2000/svg">
<path d="M7.79183 13.4446C7.79183 14.6259 8.74944 15.5835 9.93072 15.5835H11.9168C13.1825 15.5835 14.2085 14.5575 14.2085 13.2918C14.2085 12.0262 13.1825 11.0002 11.9168 11.0002H10.0835C8.81784 11.0002 7.79183 9.97415 7.79183 8.7085C7.79183 7.44284 8.81784 6.41683 10.0835 6.41683H12.0696C13.2509 6.41683 14.2085 7.37444 14.2085 8.55572M11.0002 5.04183V6.41683M11.0002 15.5835V16.9585M20.1668 11.0002C20.1668 16.0628 16.0628 20.1668 11.0002 20.1668C5.93755 20.1668 1.8335 16.0628 1.8335 11.0002C1.8335 5.93755 5.93755 1.8335 11.0002 1.8335C16.0628 1.8335 20.1668 5.93755 20.1668 11.0002Z" stroke="#C0FF94" stroke-width="1.5" stroke-linecap="round" stroke-linejoin="round"/>
</svg>
