<svg width="22" height="22" viewBox="0 0 22 22" fill="none" xmlns="http://www.w3.org/2000/svg">
<path d="M15.3584 1.9375C16.2754 1.98049 17.3169 2.34447 18.1729 3.00977C19.1018 3.73192 19.8418 4.83544 19.9395 6.2998C20.0554 8.03979 19.8277 10.7656 19.4482 13.249C19.2574 14.4979 19.025 15.7057 18.7715 16.7188C18.5246 17.7055 18.2394 18.5882 17.915 19.1289C17.3681 20.0404 16.5447 20.846 15.4873 20.6348C14.9897 20.5351 14.5827 20.2229 14.2617 19.833C13.9398 19.4419 13.6641 18.9263 13.4287 18.3145C13.1934 17.7026 13.0206 17.0542 12.8701 16.4551C12.7155 15.8395 12.5883 15.2917 12.4346 14.8086C12.2791 14.3202 12.1232 13.9888 11.958 13.7871C11.821 13.62 11.6963 13.5598 11.5205 13.5576C11.3446 13.5598 11.2201 13.6199 11.083 13.7871C10.9177 13.9888 10.762 14.32 10.6064 14.8086C10.4527 15.2918 10.3255 15.8394 10.1709 16.4551C10.0204 17.0542 9.84764 17.7026 9.6123 18.3145C9.3769 18.9264 9.10121 19.4419 8.7793 19.833C8.4583 20.2229 8.05134 20.5351 7.55371 20.6348C6.49629 20.8462 5.67296 20.0404 5.12598 19.1289C4.80165 18.5882 4.51643 17.7055 4.26953 16.7188C4.01606 15.7057 3.78359 14.4979 3.59277 13.249C3.21336 10.7656 2.98564 8.03979 3.10156 6.2998C3.19919 4.83531 3.93912 3.7319 4.86816 3.00977C5.78119 2.30011 6.90526 1.93371 7.86426 1.93359C9.41762 1.93367 10.6141 2.51385 11.3867 2.95215C11.471 2.99971 11.57 2.99983 11.6543 2.95215C12.427 2.51383 13.6233 1.93359 15.1768 1.93359L15.3584 1.9375ZM15.1768 3.43359C14.0063 3.43359 13.0813 3.86726 12.3945 4.25684C11.8511 4.565 11.1899 4.56487 10.6465 4.25684C9.95971 3.86726 9.03455 3.43367 7.86426 3.43359C7.25237 3.43369 6.4499 3.68074 5.78906 4.19434C5.14417 4.69561 4.66258 5.42577 4.59766 6.39941C4.49261 7.97607 4.70125 10.5749 5.0752 13.0225C5.26105 14.2389 5.48544 15.3986 5.72461 16.3545C5.97032 17.3365 6.2139 18.0254 6.41309 18.3574C6.91133 19.1876 7.2231 19.1709 7.25879 19.1641C7.3067 19.1544 7.43513 19.1058 7.62109 18.8799C7.8064 18.6547 8.01107 18.2975 8.21191 17.7754C8.41208 17.2549 8.5668 16.6832 8.71582 16.0898C8.86065 15.5132 9.00538 14.895 9.17773 14.3535C9.3484 13.8174 9.57263 13.2643 9.92285 12.8369C10.3001 12.3766 10.8263 12.062 11.5156 12.0576H11.5254L11.7764 12.0732C12.3438 12.1427 12.7881 12.4343 13.1182 12.8369C13.4683 13.2643 13.6927 13.8175 13.8633 14.3535C14.0356 14.895 14.1804 15.5132 14.3252 16.0898C14.4742 16.6832 14.6289 17.2549 14.8291 17.7754C15.0299 18.2974 15.2346 18.6548 15.4199 18.8799C15.6061 19.1059 15.7345 19.1545 15.7822 19.1641C15.8196 19.1709 16.1312 19.1851 16.6279 18.3574C16.8271 18.0254 17.0707 17.3366 17.3164 16.3545C17.5556 15.3986 17.78 14.2389 17.9658 13.0225C18.3398 10.5749 18.5484 7.97607 18.4434 6.39941C18.3784 5.42586 17.8967 4.69559 17.252 4.19434C16.5912 3.68075 15.7886 3.43372 15.1768 3.43359ZM13.3809 5.4043C13.5964 5.23198 13.9115 5.26698 14.084 5.48242C14.2563 5.69799 14.2213 6.01304 14.0059 6.18555C13.5485 6.55138 12.7009 6.95676 11.4834 6.95703V6.95801L11.4824 6.95703V6.95801L11.4814 6.95703C10.2644 6.95653 9.41713 6.5513 8.95996 6.18555C8.74458 6.01303 8.7095 5.69797 8.88184 5.48242C9.05429 5.26688 9.36934 5.232 9.58496 5.4043C9.86421 5.62771 10.491 5.95675 11.4824 5.95703C12.4743 5.95697 13.1015 5.62779 13.3809 5.4043Z" fill="#C0FF94"/>
</svg>
