<svg width="22" height="22" viewBox="0 0 22 22" fill="none" xmlns="http://www.w3.org/2000/svg">
<path d="M13.75 4.21667C13.75 3.70329 13.75 3.44659 13.6501 3.25051C13.5622 3.07803 13.422 2.93779 13.2495 2.84991C13.0534 2.75 12.7967 2.75 12.2833 2.75H9.71667C9.20329 2.75 8.94659 2.75 8.75051 2.84991C8.57803 2.93779 8.43779 3.07803 8.34991 3.25051C8.25 3.44659 8.25 3.70329 8.25 4.21667V6.78333C8.25 7.29671 8.25 7.55341 8.15009 7.74949C8.06221 7.92197 7.92197 8.06221 7.74949 8.15009C7.55341 8.25 7.29671 8.25 6.78333 8.25H4.21667C3.70329 8.25 3.44659 8.25 3.25051 8.34991C3.07803 8.43779 2.93779 8.57803 2.84991 8.75051C2.75 8.94659 2.75 9.20329 2.75 9.71667V12.2833C2.75 12.7967 2.75 13.0534 2.84991 13.2495C2.93779 13.422 3.07803 13.5622 3.25051 13.6501C3.44659 13.75 3.70329 13.75 4.21667 13.75H6.78333C7.29672 13.75 7.55341 13.75 7.74949 13.8499C7.92197 13.9378 8.06221 14.078 8.15009 14.2505C8.25 14.4466 8.25 14.7033 8.25 15.2167V17.7833C8.25 18.2967 8.25 18.5534 8.34991 18.7495C8.43779 18.922 8.57803 19.0622 8.75051 19.1501C8.94659 19.25 9.20329 19.25 9.71667 19.25H12.2833C12.7967 19.25 13.0534 19.25 13.2495 19.1501C13.422 19.0622 13.5622 18.922 13.6501 18.7495C13.75 18.5534 13.75 18.2967 13.75 17.7833V15.2167C13.75 14.7033 13.75 14.4466 13.8499 14.2505C13.9378 14.078 14.078 13.9378 14.2505 13.8499C14.4466 13.75 14.7033 13.75 15.2167 13.75H17.7833C18.2967 13.75 18.5534 13.75 18.7495 13.6501C18.922 13.5622 19.0622 13.422 19.1501 13.2495C19.25 13.0534 19.25 12.7967 19.25 12.2833V9.71667C19.25 9.20329 19.25 8.94659 19.1501 8.75051C19.0622 8.57803 18.922 8.43779 18.7495 8.34991C18.5534 8.25 18.2967 8.25 17.7833 8.25L15.2167 8.25C14.7033 8.25 14.4466 8.25 14.2505 8.15009C14.078 8.06221 13.9378 7.92197 13.8499 7.74949C13.75 7.55341 13.75 7.29671 13.75 6.78333V4.21667Z" stroke="#C0FF94" stroke-width="1.5" stroke-linecap="round" stroke-linejoin="round"/>
</svg>
