<svg width="20" height="20" viewBox="0 0 20 20" fill="none" xmlns="http://www.w3.org/2000/svg">
<path d="M17.5 13.5C17.5 14.9001 17.5 15.6002 17.2275 16.135C16.9878 16.6054 16.6054 16.9878 16.135 17.2275C15.6002 17.5 14.9001 17.5 13.5 17.5L6.5 17.5C5.09987 17.5 4.3998 17.5 3.86502 17.2275C3.39462 16.9878 3.01217 16.6054 2.77248 16.135C2.5 15.6002 2.5 14.9001 2.5 13.5L2.5 6.5C2.5 5.09987 2.5 4.3998 2.77249 3.86503C3.01217 3.39462 3.39462 3.01217 3.86503 2.77248C4.39981 2.5 5.09987 2.5 6.5 2.5L13.5 2.5C14.9001 2.5 15.6002 2.5 16.135 2.77249C16.6054 3.01217 16.9878 3.39462 17.2275 3.86503C17.5 4.39981 17.5 5.09987 17.5 6.5L17.5 13.5Z" stroke="#1F1F1F" stroke-width="2" stroke-linecap="round" stroke-linejoin="round"/>
<path d="M18.334 13.5C18.334 15.7091 16.5431 17.5 14.334 17.5L11.6673 17.5L11.6673 2.5L14.334 2.5C16.5431 2.5 18.334 4.29086 18.334 6.5L18.334 13.5Z" fill="#1F1F1F"/>
</svg>
