<svg xmlns="http://www.w3.org/2000/svg" width="16" height="16" viewBox="0 0 16 16" fill="none">
  <path d="M14 10.8C14 11.9201 14 12.4802 13.782 12.908C13.5903 13.2843 13.2843 13.5903 12.908 13.782C12.4802 14 11.9201 14 10.8 14L5.2 14C4.07989 14 3.51984 14 3.09202 13.782C2.71569 13.5903 2.40973 13.2843 2.21799 12.908C2 12.4802 2 11.9201 2 10.8L2 5.2C2 4.07989 2 3.51984 2.21799 3.09202C2.40973 2.7157 2.7157 2.40973 3.09202 2.21799C3.51984 2 4.0799 2 5.2 2L10.8 2C11.9201 2 12.4802 2 12.908 2.21799C13.2843 2.40973 13.5903 2.7157 13.782 3.09202C14 3.51984 14 4.0799 14 5.2L14 10.8Z" stroke="#1F1F1F" stroke-width="2" stroke-linecap="round" stroke-linejoin="round"/>
  <path d="M14.666 10C14.666 12.2091 12.8752 14 10.666 14L9.33268 14L9.33268 2L10.666 2C12.8752 2 14.666 3.79086 14.666 6L14.666 10Z" fill="#1F1F1F"/>
</svg>
