<svg width="18" height="18" viewBox="0 0 18 18" fill="none" xmlns="http://www.w3.org/2000/svg">
<path d="M9.37472 10.875V6.375M7.12472 8.625H11.6247M9.37472 15C12.8955 15 15.7497 12.1458 15.7497 8.625C15.7497 5.10418 12.8955 2.25 9.37472 2.25C5.8539 2.25 2.99972 5.10418 2.99972 8.625C2.99972 9.3375 3.1166 10.0227 3.33225 10.6625C3.4134 10.9032 3.45397 11.0236 3.46129 11.1161C3.46852 11.2074 3.46305 11.2714 3.44046 11.3602C3.41758 11.4501 3.36707 11.5436 3.26604 11.7306L2.0393 14.0013C1.86431 14.3252 1.77682 14.4871 1.7964 14.6121C1.81346 14.7209 1.87753 14.8168 1.9716 14.8742C2.0796 14.9401 2.26269 14.9211 2.62887 14.8833L6.46964 14.4863C6.58595 14.4742 6.64411 14.4682 6.69711 14.4703C6.74925 14.4722 6.78605 14.4771 6.83689 14.4889C6.88858 14.5008 6.95358 14.5258 7.08358 14.5759C7.79462 14.8498 8.56713 15 9.37472 15Z" stroke="#52535A" stroke-width="1.5" stroke-linecap="round" stroke-linejoin="round"/>
</svg>
