<svg width="62" height="17" viewBox="0 0 62 17" fill="none" xmlns="http://www.w3.org/2000/svg">
<path d="M4.91024 5.05469C5.89646 5.09127 7.50373 5.38323 9.73153 6.625L8.96395 8.88965C8.14818 8.4209 6.14841 7.46186 4.67294 7.37402C3.19759 7.28638 2.55997 7.9212 2.42587 8.25C2.30411 8.43872 2.26195 8.88943 3.06551 9.18164C3.86915 9.47387 6.35853 10.2169 7.50301 10.5518C8.64745 10.8866 9.73146 11.9256 9.73153 13.7109C9.73153 15.1172 8.54961 16.3004 7.73446 16.5469C6.94934 16.7842 6.34857 16.9035 5.23837 16.9619C2.86376 17.0868 0.0531131 15.4862 0.0157089 15.4648L0.800865 13.0537C1.22097 13.2912 2.18897 13.81 2.70028 13.9854C3.33967 14.2046 5.01978 14.8431 6.06063 14.6787C6.89328 14.5472 7.35751 14.1198 7.35751 13.7109C7.3575 13.2067 7.3423 13.0027 5.89657 12.5791C4.08865 12.0495 1.3306 11.3735 0.672936 10.3691C0.015475 9.36466 -0.586913 7.46544 1.05672 6.27832C2.70038 5.0912 3.92405 5.01816 4.91024 5.05469ZM48.7618 7.50684C46.9923 7.50684 45.5089 9.0364 45.5089 10.9238V16.7607H43.0606V11.4395C43.0608 7.95822 45.498 5.13574 48.7618 5.13574V7.50684ZM16.3507 5.02148C18.6679 5.02154 19.8579 6.2341 20.4434 6.83105C20.4847 6.87314 20.5222 6.91292 20.5577 6.94824V16.7012H19.4249V10.3398C19.3206 9.35568 18.5602 7.39803 16.3507 7.43945C14.141 7.48098 13.4741 9.39029 13.4171 10.3398V16.7012H11.0108V10.3398C11.1529 8.56709 12.4198 5.02148 16.3507 5.02148ZM24.7657 5.02148C28.6965 5.02148 29.9634 8.56701 30.1056 10.3398V16.7012H27.6993V10.3398C27.6422 9.39021 26.9752 7.48098 24.7657 7.43945C22.5565 7.39813 21.7958 9.35564 21.6915 10.3398V16.7012H20.5587V6.94824C20.5941 6.91292 20.6326 6.87411 20.6739 6.83203C21.2595 6.23509 22.4486 5.0216 24.7657 5.02148ZM52.4757 0V11.5723L57.7003 5.3584H60.6837L56.3634 10.7285C58.2426 10.8589 62.0009 12.2348 62.0011 16.6953H59.6554C59.5656 15.5086 58.6234 13.1357 55.9307 13.1357C53.6117 13.136 52.4759 15.5087 52.4757 16.6953H50.047L50.0518 0H52.4757Z" fill="#163036"/>
<rect x="39.3162" y="5.12598" width="2.60641" height="2.24672" fill="#163036"/>
<path fill-rule="evenodd" clip-rule="evenodd" d="M36.2285 14.3119C37.922 14.3119 39.2971 12.8487 39.3156 11.0949C39.3157 11.0829 39.3158 8.71215 39.3158 8.7002H41.9228C41.9228 8.72202 41.9226 11.1027 41.9224 11.1244C41.8886 14.3555 39.3523 16.7602 36.2285 16.7602H31.4221L31.4221 14.3119H36.2285Z" fill="#163036"/>
</svg>
